<svg width="44" height="44" viewBox="0 0 44 44" fill="none" xmlns="http://www.w3.org/2000/svg">
<g filter="url(#filter0_d_706_382)">
<path d="M15.095 10.2736C13.4699 8.47255 13.6093 5.59084 15.095 4.51023C17.4722 2.7812 21.0383 3.7898 22.5242 4.51023C28.7151 7.512 40.8741 14.8844 39.9826 20.3596C39.0911 25.8349 18.3144 34.8882 8.03743 38.7305C6.55167 39.286 3.35716 40.4595 3.95149 37.2896C4.54582 34.1197 10.6376 29.7252 13.2378 28.2843L22.5242 23.2413C23.6386 22.5209 25.4231 21.4402 25.4231 19.9994C25.4231 18.1983 23.0195 16.5173 21.7813 15.6768C20.4193 14.8363 17.1751 12.579 15.095 10.2736Z" fill="#F26D1E"/>
<path d="M15.095 10.2736C13.4699 8.47255 13.6093 5.59084 15.095 4.51023C17.4722 2.7812 21.0383 3.7898 22.5242 4.51023C28.7151 7.512 40.8741 14.8844 39.9826 20.3596C39.0911 25.8349 18.3144 34.8882 8.03743 38.7305C6.55167 39.286 3.35716 40.4595 3.95149 37.2896C4.54582 34.1197 10.6376 29.7252 13.2378 28.2843L22.5242 23.2413C23.6386 22.5209 25.4231 21.4402 25.4231 19.9994C25.4231 18.1983 23.0195 16.5173 21.7813 15.6768C20.4193 14.8363 17.1751 12.579 15.095 10.2736Z" stroke="#F0EEEE" stroke-width="4.49892"/>
</g>
<path d="M15.095 10.2736C13.4699 8.47255 13.6093 5.59084 15.095 4.51023C17.4722 2.7812 21.0383 3.7898 22.5242 4.51023C28.7151 7.512 40.8741 14.8844 39.9826 20.3596C39.0911 25.8349 18.3144 34.8882 8.03743 38.7305C6.55167 39.286 3.35716 40.4595 3.95149 37.2896C4.54582 34.1197 10.6376 29.7252 13.2378 28.2843L22.5242 23.2413C23.6386 22.5209 25.4231 21.4402 25.4231 19.9994C25.4231 18.1983 23.0195 16.5173 21.7813 15.6768C20.4193 14.8363 17.1751 12.579 15.095 10.2736Z" fill="#F26D1E"/>
<g filter="url(#filter1_f_706_382)">
<path d="M32.8507 24.3217C26.6933 26.8609 19.4939 29.2569 18.2306 27.9132C16.9673 26.5694 27.2789 23.9615 27.2789 19.9991C27.2789 17.8378 24.9899 15.9783 23.9358 14.9561C21.3356 12.4346 19.4784 11.354 17.6211 9.19271C14.7731 5.87861 17.2241 4.8702 21.3356 6.67128C24.8698 8.2195 32.7721 12.4346 36.9112 17.1174C39.14 19.6389 38.3626 22.0487 32.8507 24.3217Z" fill="#F4901A" fill-opacity="0.8"/>
</g>
<defs>
<filter id="filter0_d_706_382" x="0.130122" y="0.556577" width="43.6487" height="43.3512" filterUnits="userSpaceOnUse" color-interpolation-filters="sRGB">
<feFlood flood-opacity="0" result="BackgroundImageFix"/>
<feColorMatrix in="SourceAlpha" type="matrix" values="0 0 0 0 0 0 0 0 0 0 0 0 0 0 0 0 0 0 127 0" result="hardAlpha"/>
<feOffset dy="0.749819"/>
<feGaussianBlur stdDeviation="0.749819"/>
<feColorMatrix type="matrix" values="0 0 0 0 0 0 0 0 0 0 0 0 0 0 0 0 0 0 0.25 0"/>
<feBlend mode="normal" in2="BackgroundImageFix" result="effect1_dropShadow_706_382"/>
<feBlend mode="normal" in="SourceGraphic" in2="effect1_dropShadow_706_382" result="shape"/>
</filter>
<filter id="filter1_f_706_382" x="15.6406" y="5.03814" width="23.1834" height="24.0111" filterUnits="userSpaceOnUse" color-interpolation-filters="sRGB">
<feFlood flood-opacity="0" result="BackgroundImageFix"/>
<feBlend mode="normal" in="SourceGraphic" in2="BackgroundImageFix" result="shape"/>
<feGaussianBlur stdDeviation="0.37491" result="effect1_foregroundBlur_706_382"/>
</filter>
</defs>
</svg>
